<?xml version="1.0" encoding="UTF-8" standalone="no"?>
<svg
   xmlns:dc="http://purl.org/dc/elements/1.1/"
   xmlns:cc="http://creativecommons.org/ns#"
   xmlns:rdf="http://www.w3.org/1999/02/22-rdf-syntax-ns#"
   xmlns:svg="http://www.w3.org/2000/svg"
   xmlns="http://www.w3.org/2000/svg"
   height="352"
   width="352"
   id="svg4"
   version="1.1"
   viewBox="0 0 352 352"
   role="img"
   class="svg-inline--fa fa-times fa-w-11"
   data-icon="times"
   data-prefix="fas"
   focusable="false"
   aria-hidden="true">
  <metadata
     id="metadata10">
    <rdf:RDF>
      <cc:Work
         rdf:about="">
        <dc:format>image/svg+xml</dc:format>
        <dc:type
           rdf:resource="http://purl.org/dc/dcmitype/StillImage" />
        <dc:title></dc:title>
      </cc:Work>
    </rdf:RDF>
  </metadata>
  <defs
     id="defs8" />
  <path
     fill="#ffffff"
     id="path2"
     d="M 242.72,176 342.79,75.93 c 12.28,-12.28 12.28,-32.19 0,-44.48 L 320.55,9.21 c -12.28,-12.28 -32.19,-12.28 -44.48,0 L 176,109.28 75.93,9.21 C 63.65,-3.07 43.74,-3.07 31.45,9.21 L 9.21,31.45 c -12.28,12.28 -12.28,32.19 0,44.48 L 109.28,176 9.21,276.07 c -12.28,12.28 -12.28,32.19 0,44.48 l 22.24,22.24 c 12.28,12.28 32.2,12.28 44.48,0 L 176,242.72 276.07,342.79 c 12.28,12.28 32.2,12.28 44.48,0 l 22.24,-22.24 c 12.28,-12.28 12.28,-32.19 0,-44.48 z" />
</svg>
